<svg xmlns="http://www.w3.org/2000/svg" width="512" height="512" viewBox="0 0 512 512"><path d="M110 40l10 96h30l-18 288c-33.126 4.23-50 8-50 8l-10 40h368l-10-40s-15.625-3.702-50-8l-18-288h30l8-96h-61l-3 40h-49l1-40h-64l1 40h-49l-2-40z" stroke="#000" stroke-width="16"/><path d="M256 140c-32.9 0-65.703.916-98.398 2.598l-1.004 16.07c33.026-1.73 66.165-2.672 99.402-2.672 33.237 0 66.375.941 99.402 2.672l-1.004-16.07C321.703 140.916 288.9 140 256 140zm0 220c-37.757 0-75.279 2.263-112.402 6.64l-1.016 16.243C180.029 378.349 217.891 376 256 376c38.108 0 75.969 2.35 113.414 6.883l-1.016-16.242C331.276 362.263 293.756 360 256 360zm0 32c-38.441 0-76.637 2.35-114.418 6.887l-1.016 16.242C178.67 410.433 217.207 408 256 408c38.792 0 77.328 2.433 115.43 7.129l-1.016-16.242C332.634 394.35 294.44 392 256 392z" color="#000" fill="#fff"/></svg>
