<svg xmlns="http://www.w3.org/2000/svg" width="512" height="512" viewBox="0 0 512 512"><path d="M430 432l10 40H72l10-40s19.072-4.922 55.167-9.306l.627-.047-9.825-78.6c48-16 112-64 112-144-32 0-128 8-160 16L72 151.999c32-8 183.97-47.952 151.97-111.952 272 0 248.03 231.952 143.064 381.734C408.16 426.363 430 432 430 432z" stroke="#000" stroke-width="16"/><path d="M208 124.862c12.5-22.463 31.166-29.705 56-21.726-12.5 22.464-31.166 29.705-56 21.726zM256 360c-39.342 0-78.428 2.465-117.074 7.215l1.984 15.871C178.901 378.417 217.324 376 256 376c42.148 0 83.995 2.872 125.309 8.407a439.171 439.171 0 0 0 8.257-15.028C345.563 363.196 300.95 360 256 360zm0 32c-38.007 0-75.773 2.296-113.137 6.73l1.989 15.88C181.559 410.256 218.661 408 256 408c35.805 0 71.394 2.066 106.625 6.07a434.359 434.359 0 0 0 9.82-14.937C334.004 394.432 295.13 392 256 392z" fill="#fff"/></svg>
