<svg xmlns="http://www.w3.org/2000/svg" width="512" height="512" viewBox="0 0 512 512"><path d="M430 432l10 40H72l10-40s27.69-7.146 79.773-11.855L168.8 364C80 176 192 144 256 48c64 96 176 128 87 316l7.308 56.152C402.338 424.862 430 432 430 432z" stroke="#000" stroke-width="16"/><path d="M207.41 118.383c-8.625 9.306-16.96 18.435-24.578 27.683L208 240h32zM256 360a959.05 959.05 0 0 0-79.047 3.29l-2.031 16.226A943.076 943.076 0 0 1 256 376c27.128 0 54.13 1.194 80.95 3.504l-2.114-16.234A959.205 959.205 0 0 0 256 360zm0 32c-27.85 0-55.568 1.235-83.098 3.629l-2.03 16.234A944.128 944.128 0 0 1 256 408c28.549 0 56.96 1.313 85.164 3.867l-2.117-16.242A959.35 959.35 0 0 0 256 392z" color="#000" fill="#fff"/></svg>
