<svg xmlns="http://www.w3.org/2000/svg" width="512" height="512" viewBox="0 0 512 512"><path d="M256 40c-39.764 0-72 32.236-72 72a72 72 0 0 0 16.52 45.8c-17.507.5-43.013 1.227-60.52 2.2l-8 40h68c0 64-8 152-68 224-33.126 4.23-50 8-50 8l-10 40h368l-10-40s-15.625-3.702-50-8c-60-72-68-160-68-224h68l-8-40c-17.496-.972-42.992-1.7-60.488-2.2A72 72 0 0 0 328 112c0-39.764-32.236-72-72-72z" stroke="#000" stroke-width="16" stroke-linecap="square" stroke-miterlimit="8"/><path d="M256 207.996c-16.05 0-32.07.268-48.074.676a621.587 621.587 0 0 1-.371 16.016c16.126-.419 32.271-.692 48.445-.692s32.319.273 48.445.692a616.71 616.71 0 0 1-.37-16.016c-16.005-.408-32.026-.676-48.075-.676zM256 360c-25.87 0-51.632 1.076-77.23 3.148a286.307 286.307 0 0 1-8 16.75C198.995 377.331 227.427 376 256 376c28.573 0 57.005 1.331 85.23 3.898a286.307 286.307 0 0 1-8-16.75C307.632 361.076 281.87 360 256 360zm0 32c-31.772 0-63.377 1.613-94.719 4.727a270.922 270.922 0 0 1-11.48 17.332C184.893 410.078 220.337 408 256 408s71.107 2.078 106.2 6.059a270.917 270.917 0 0 1-11.481-17.332C319.377 393.613 287.772 392 256 392z" color="#000" fill="#fff"/></svg>
