<svg xmlns="http://www.w3.org/2000/svg" width="512" height="512" viewBox="0 0 512 512"><path d="M256 40a56 48 0 0 0-56 48 56 48 0 0 0 3.188 15.8 136.343 100 0 0 0-83.876 92.2 136.343 100 0 0 0 .196 2.855C104.813 191.533 90.982 184.237 80 176c35.527 63.16 63.262 158.945 63.645 246C103.235 426.518 82 432 82 432l-10 40h368l-10-40s-21.236-5.482-61.645-10c.383-87.055 28.118-182.84 63.645-246-11.143 8.357-25.216 15.746-40.152 23.176A136.343 100 0 0 0 392 196a136.343 100 0 0 0-83.23-92.098A56 48 0 0 0 312 88a56 48 0 0 0-56-48z" stroke="#000" stroke-width="16" stroke-linecap="square" stroke-miterlimit="8"/><path d="M256 79.379l-22.285 55.707c-6.873 17.182-15.41 29.192-25.684 44.601-5.72 8.582-11.83 18.373-17.687 29.79-20.016-13.683-41.437-23.842-60.074-32.872a66.91 66.91 0 0 0-2.89 17c23.269 11.472 48.835 23.775 69.241 40.852 7.518-18.906 16.241-33.172 24.723-45.894 10.09-15.137 19.602-28.475 27.227-47.536l7.43-18.566 7.429 18.566c7.624 19.061 17.135 32.399 27.226 47.536 8.482 12.722 17.205 26.988 24.723 45.894 20.208-16.91 45.48-29.134 68.57-40.512a66.797 66.797 0 0 0-2.793-17.05c-18.504 8.958-39.698 19.046-59.5 32.582-5.857-11.417-11.966-21.208-17.687-29.79-10.273-15.41-18.81-27.419-25.684-44.601zM256 360c-36.264 0-72.307 2.108-107.992 6.152.646 5.31 1.212 10.62 1.691 15.926C184.825 378.09 220.302 376 256 376c35.698 0 71.175 2.09 106.3 6.078a515.917 515.917 0 0 1 1.692-15.926C328.307 362.108 292.264 360 256 360zm0 32c-35.295 0-70.379 2.005-105.129 5.84.31 5.358.534 10.703.656 16.023C186.057 410.012 220.922 408 256 408c35.079 0 69.944 2.012 104.473 5.863.122-5.32.346-10.665.656-16.023C326.38 394.005 291.295 392 256 392z" fill="#fff"/></svg>
