<svg xmlns="http://www.w3.org/2000/svg" width="512" height="512" viewBox="0 0 512 512"><path d="M242 44h28v40h38v28h-38v56h-28v-56h-38V84h38z" color="#000" fill="#fff"/><path d="M230 32v40h-38v52h38v56h52v-56h38V72h-38V32zm16 16h20v40h38v20h-38v56h-20v-56h-38V88h38z" color="#000"/><path d="M430 432l10 40H72l10-40s21.225-5.477 61.614-9.998C142.111 336.916 80.478 239.283 112 192c32-48 95.338-32 144-32 48.662 0 112-16 144 32 31.429 47.143-29.746 145.076-31.587 230.008C408.788 426.526 430 432 430 432z" stroke="#000" stroke-width="16"/><path d="M197.355 165.488c-.825-.013-1.631.014-2.453.008-9.446 10.959-14.944 23.599-17.316 36.844-3.289 18.363-1.062 37.81 3.043 57.308 7.614 36.17 21.585 73.206 23.574 101.793a965.305 965.305 0 0 0-60.008 5.145 376.117 376.117 0 0 1 3.211 15.754C183.281 378.18 219.526 376 256 376c36.52 0 72.809 2.185 108.727 6.355.96-5.259 2.045-10.51 3.23-15.75a965.405 965.405 0 0 0-59.703-5.14c1.982-28.59 15.957-65.638 23.574-101.817 4.105-19.498 6.336-38.945 3.047-57.308-2.372-13.244-7.867-25.886-17.313-36.844-7.315.037-14.764.34-22.257.762l-.106.14c14.464 10.848 21.214 23.626 23.925 38.762 2.711 15.137.942 32.69-2.953 51.192-7.25 34.44-21.925 71.453-23.926 104.367-12.054-.46-24.136-.719-36.245-.719-11.954 0-23.883.255-35.785.703-2.005-32.91-16.676-69.917-23.926-104.351-3.895-18.502-5.668-36.055-2.957-51.192 2.711-15.136 9.462-27.914 23.926-38.762l-.074-.097c-6.655-.377-13.298-.711-19.828-.813zM256 392c-35.65 0-71.086 2.046-106.18 5.957.669 5.32 1.182 10.634 1.485 15.93C185.906 410.019 220.846 408 256 408c35.173 0 70.13 2.023 104.75 5.895.32-5.292.85-10.606 1.531-15.926C327.155 394.05 291.685 392 256 392z" fill="#fff"/></svg>
