<svg xmlns="http://www.w3.org/2000/svg" width="512" height="512" viewBox="0 0 512 512"><path d="M430 432l10 40H72l10-40s27.69-7.146 79.773-11.855L168.8 364C80 176 192 144 256 48c64 96 176 128 87 316l7.308 56.152C402.338 424.862 430 432 430 432z" fill="#fff" stroke="#000" stroke-width="16"/><path d="M256 360a960.244 960.244 0 0 0-87.207 3.984l.008.016-2.031 16.243A944.144 944.144 0 0 1 256 376c29.881 0 59.614 1.434 89.113 4.23L343 364l.016-.035A960.285 960.285 0 0 0 256 360zm0 32a960.204 960.204 0 0 0-91.25 4.36l-2.977 23.785C109.69 424.854 82 432 82 432l-2.227 8.898A927.821 927.821 0 0 1 256 424a927.84 927.84 0 0 1 176.227 16.898L430 432s-27.66-7.138-79.691-11.848l-3.098-23.797A960.208 960.208 0 0 0 256 392zm-51.047-282.79c-8.526 9.142-16.87 18.165-24.668 27.356L208 240h32z" color="#000"/></svg>
