<svg xmlns="http://www.w3.org/2000/svg" width="512" height="512" viewBox="0 0 512 512"><g transform="matrix(2 0 0 2 -2048 0)"><ellipse cx="1152" cy="44" rx="28" ry="24" fill="#fff" stroke="#000" stroke-width="8" stroke-linecap="square"/><ellipse ry="50" rx="68.172" cy="98" cx="1151.828" fill="#fff" stroke="#000" stroke-width="8" stroke-linecap="square"/><path d="M1239 216l5 20h-184l5-20s10.619-2.74 30.823-5c-.191-43.527-14.06-91.42-31.823-123 16 12 44 20 60 36 8-24 20-32 28-52 8 20 20 28 28 52 16-16 44-24 60-36-17.764 31.58-31.632 79.473-31.823 123 20.204 2.26 30.823 5 30.823 5z" fill="#fff" stroke="#000" stroke-width="8" stroke-miterlimit="8"/><path d="M1152 180c-19.482 0-38.842 1.19-57.984 3.52.325 2.653.61 5.306.85 7.955A472.044 472.044 0 0 1 1152 188a471.96 471.96 0 0 1 57.135 3.475c.24-2.65.524-5.302.85-7.955A480.046 480.046 0 0 0 1152 180zm0 16a480.037 480.037 0 0 0-56.549 3.35c.225 3.908.354 7.796.371 11.65-20.204 2.259-30.822 5-30.822 5l-1.113 4.45A463.91 463.91 0 0 1 1152 212a463.91 463.91 0 0 1 88.113 8.45L1239 216s-10.618-2.741-30.822-5c.017-3.854.146-7.742.37-11.65A480.037 480.037 0 0 0 1152 196z" color="#000"/></g></svg>
