<svg xmlns="http://www.w3.org/2000/svg" width="512" height="512" viewBox="0 0 512 512"><path d="M430 432l10 40H72l10-40s19.072-4.922 55.167-9.306l.627-.047-9.825-78.6c48-16 112-64 112-144-32 0-128 8-160 16L72 152c32-8 183.97-47.953 151.97-111.953 272 0 248.03 231.953 143.064 381.735C408.16 426.364 430 432 430 432z" fill="#fff" stroke="#000" stroke-width="15.998"/><path d="M208 124.863c12.5-22.463 31.166-29.705 56-21.726-12.5 22.463-31.166 29.705-56 21.726zM256 360a960.022 960.022 0 0 0-125.016 8.191l1.985 15.875A944.059 944.059 0 0 1 256 376c45.073 0 89.81 3.244 133.91 9.562a448.487 448.487 0 0 0 8.13-14.996A959.95 959.95 0 0 0 256 360zm0 32c-41.18 0-82.085 2.662-122.492 7.86L132 424c-33.126 4.23-50 8-50 8l-2.227 8.898A927.821 927.821 0 0 1 256 424a927.84 927.84 0 0 1 176.227 16.898L430 432s-15.625-3.702-50-8l-1.508-24.14A960.006 960.006 0 0 0 256 392z"/></svg>
