<svg xmlns="http://www.w3.org/2000/svg" width="512" height="512" viewBox="0 0 512 512"><path d="M110 40l10 96h30l-18 288c-33.126 4.23-50 8-50 8l-10 40h368l-10-40s-15.625-3.702-50-8l-18-288h30l8-96h-61l-3 40h-49l1-40h-64l1 40h-49l-2-40z" fill="#fff" stroke="#000" stroke-width="16"/><path d="M256 123.996c-45.775 0-91.378 1.665-136.738 4.902L120 136h30l-1.441 23.09c35.683-2.033 71.507-3.094 107.441-3.094s71.758 1.061 107.441 3.094L362 136h30l.594-7.113c-45.313-3.23-90.868-4.89-136.594-4.89zM256 360a960.01 960.01 0 0 0-120.477 7.598l-1.015 16.27A944.064 944.064 0 0 1 256 376c40.848 0 81.42 2.668 121.492 7.867l-1.015-16.27A960.064 960.064 0 0 0 256 360zm0 32c-41.18 0-82.085 2.662-122.492 7.86L132 424c-33.126 4.23-50 8-50 8l-2.227 8.898A927.821 927.821 0 0 1 256 424a927.84 927.84 0 0 1 176.227 16.898L430 432s-15.625-3.702-50-8l-1.508-24.14A960.006 960.006 0 0 0 256 392z" color="#000"/></svg>
