<svg xmlns="http://www.w3.org/2000/svg" width="512" height="512" viewBox="0 0 512 512"><path d="M256 40c-39.764 0-72 32.236-72 72a72 72 0 0 0 16.52 45.8c-17.507.5-43.013 1.227-60.52 2.2l-8 40h68c0 64-8 152-68 224-33.126 4.23-50 8-50 8l-10 40h368l-10-40s-15.625-3.702-50-8c-60-72-68-160-68-224h68l-8-40c-17.496-.972-42.992-1.7-60.488-2.2A72 72 0 0 0 328 112c0-39.764-32.236-72-72-72z" fill="#fff" stroke="#000" stroke-width="16" stroke-linecap="square" stroke-miterlimit="8"/><path d="M256 188c-40.948 0-81.76 1.329-122.383 3.922L132 200h68c0 6.694-.118 13.702-.344 20.875 18.75-.56 37.53-.875 56.344-.875s37.593.316 56.344.875A668.052 668.052 0 0 1 312 200h68l-1.617-8.078A1921.006 1921.006 0 0 0 256 188zm0 172a959.11 959.11 0 0 0-88.402 4.102 244.768 244.768 0 0 1-7.59 16.832C191.762 377.684 223.793 376 256 376c32.207 0 64.238 1.683 95.992 4.934a244.776 244.776 0 0 1-7.59-16.832A959.11 959.11 0 0 0 256 360zm0 32a959.261 959.261 0 0 0-105.34 5.824c-5.473 8.99-11.64 17.753-18.66 26.176-33.126 4.23-50 8-50 8l-2.223 8.898A927.82 927.82 0 0 1 256 424a927.82 927.82 0 0 1 176.223 16.898L430 432s-15.625-3.702-50-8c-7.02-8.423-13.187-17.185-18.66-26.176A959.261 959.261 0 0 0 256 392z" color="#000"/></svg>
