<svg xmlns="http://www.w3.org/2000/svg" width="512" height="512" viewBox="0 0 512 512"><path d="M242 44h28v40h38v28h-38v56h-28v-56h-38V84h38z" color="#000" fill="#fff"/><path d="M230 32v40h-38v52h38v56h52v-56h38V72h-38V32zm16 16h20v40h38v20h-38v56h-20v-56h-38V88h38z" color="#000"/><path d="M430 432l10 40H72l10-40s21.225-5.477 61.614-9.998C142.111 336.916 80.478 239.283 112 192c32-48 95.338-32 144-32 48.662 0 112-16 144 32 31.429 47.143-29.746 145.076-31.587 230.008C408.788 426.526 430 432 430 432z" fill="#fff" stroke="#000" stroke-width="16"/><path d="M207.66 153.602c-17.536 13.152-26.785 30.374-30.074 48.738-3.289 18.363-1.062 37.81 3.043 57.308 8.21 38.997 23.832 79.019 23.832 108.352h16c0-34.667-16.382-74.645-24.172-111.648-3.895-18.502-5.668-36.055-2.957-51.192 2.711-15.136 9.462-27.914 23.926-38.762zm97.14 0l-9.6 12.796c14.463 10.848 21.214 23.626 23.925 38.762 2.711 15.137.942 32.69-2.953 51.192C308.382 293.355 292 333.333 292 368h16c0-29.333 15.618-69.355 23.828-108.352 4.105-19.498 6.336-38.945 3.047-57.308-3.289-18.364-12.538-35.586-30.074-48.738zM256 360a960.077 960.077 0 0 0-119.84 7.516 378.17 378.17 0 0 1 3.242 15.707A944.106 944.106 0 0 1 256 376c39.23 0 78.207 2.443 116.73 7.242a385.507 385.507 0 0 1 3.262-15.707A960.07 960.07 0 0 0 256 360zm0 32c-38.349 0-76.46 2.31-114.152 6.824.993 7.796 1.63 15.537 1.765 23.176C103.223 426.52 82 432 82 432l-2.227 8.898A927.82 927.82 0 0 1 256 424a927.82 927.82 0 0 1 176.227 16.898L430 432s-21.211-5.474-61.586-9.992c.166-7.634.826-15.374 1.84-23.172A960.075 960.075 0 0 0 256 392z" color="#000"/></svg>
